<?xml version="1.0" encoding="UTF-8"?>
<svg version="1.1" xmlns="http://www.w3.org/2000/svg" width="820" height="312">
<path d="M0 0 C24.05102868 22.34381281 37.0658414 53.74053041 38.4375 86.3125 C39.06891797 121.01211019 25.5450469 152.29678094 1.66015625 177.14453125 C-20.84457976 199.74558835 -52.28549522 211.77975548 -83.95068359 212.35595703 C-118.60150182 212.2347754 -149.57938392 198.25307008 -173.99853516 173.93798828 C-196.09956094 150.96754968 -207.70846973 119.23691777 -207.59765625 87.55078125 C-206.77373459 53.0668188 -192.33550937 22.14787069 -167.5625 -1.6875 C-119.60097644 -45.34971216 -47.26585462 -42.49616114 0 0 Z " fill="#F69500" transform="translate(494.5625,66.6875)"/>
<path d="M0 0 C5.38369776 0.16314236 9.00862419 3.76134022 13 7 C13.33 6.01 13.66 5.02 14 4 C14.99 4 15.98 4 17 4 C17.66 3.67 18.32 3.34 19 3 C21.125 3.4375 21.125 3.4375 23 4 C23.33 3.01 23.66 2.02 24 1 C24.99 1 25.98 1 27 1 C27.66 2.65 28.32 4.3 29 6 C29.77923828 5.44119141 29.77923828 5.44119141 30.57421875 4.87109375 C36.25629147 1.01652686 36.25629147 1.01652686 39.8125 0.9375 C42.41377745 2.20097762 43.50176769 3.55551571 45 6 C45.86625 5.195625 46.7325 4.39125 47.625 3.5625 C50.62876093 1.03075864 53.03203262 0.28342624 57 0 C57.34855655 7.62951555 57.0017506 13.92444501 54 21 C55.11375 20.34 56.2275 19.68 57.375 19 C60.75 17 60.75 17 63 17 C62.67 19.64 62.34 22.28 62 25 C61.01 23.515 61.01 23.515 60 22 C59.23816406 22.70576172 59.23816406 22.70576172 58.4609375 23.42578125 C54.46552915 27.03960566 50.86088027 29.62608173 46 32 C44.14684743 34.04946399 44.14684743 34.04946399 43 36 C49.2049038 35.7242265 53.10160999 34.89359206 58 31 C56.97467587 33.97343996 56.00202083 34.99860466 53.375 36.8125 C49.93845024 38.0216564 47.83327179 38.01905962 44.28125 37.390625 C41.6289606 36.93646586 38.99433631 36.71627712 36.3125 36.5 C33.56005941 36.2769368 30.9952728 35.99891911 28.30078125 35.3828125 C25.9102481 34.71958318 25.9102481 34.71958318 23.875 36.375 C23.25625 36.91125 22.6375 37.4475 22 38 C17.46674962 39.51108346 13.30879695 39.98463399 8.875 38.09375 C3.26797484 34.78050786 -1.70339995 30.26345468 -4 24 C-4 22.68 -4 21.36 -4 20 C-1.03 20.33 1.94 20.66 5 21 C4.195625 20.21625 3.39125 19.4325 2.5625 18.625 C-1.24061757 14.72912347 -1.13676042 12.79437172 -1.125 7.4375 C-1.12757813 6.26058594 -1.13015625 5.08367187 -1.1328125 3.87109375 C-1 1 -1 1 0 0 Z " fill="#FCE0B5" transform="translate(315,136)"/>
<path d="M0 0 C0 1.32 0 2.64 0 4 C0.66 4 1.32 4 2 4 C1.34 8.95 0.68 13.9 0 19 C1.11375 18.34 2.2275 17.68 3.375 17 C6.75 15 6.75 15 9 15 C8.67 17.64 8.34 20.28 8 23 C7.34 22.01 6.68 21.02 6 20 C5.49210937 20.47050781 4.98421875 20.94101563 4.4609375 21.42578125 C0.46552915 25.03960566 -3.13911973 27.62608173 -8 30 C-9.85315257 32.04946399 -9.85315257 32.04946399 -11 34 C-4.7950962 33.7242265 -0.89839001 32.89359206 4 29 C2.97467587 31.97343996 2.00202083 32.99860466 -0.625 34.8125 C-6.61917664 36.92156215 -11.28983934 35.34263001 -17 33 C-18.216875 32.835 -19.43375 32.67 -20.6875 32.5 C-24 32 -24 32 -26 30 C-26.4375 27.625 -26.4375 27.625 -26 25 C-22.52579262 20.96543659 -19.13403034 20.45716269 -14.0859375 20.078125 C-12.39161293 20.01466715 -10.6955125 20 -9 20 C-8.67 19.34 -8.34 18.68 -8 18 C-8.66 18.33 -9.32 18.66 -10 19 C-12.01936989 9.61586931 -12.01936989 9.61586931 -9.578125 5.74609375 C-3.77205115 0 -3.77205115 0 0 0 Z " fill="#FBDAA6" transform="translate(369,138)"/>
<path d="M0 0 C0.33452052 7.43378943 0.13902852 13.19877155 -3 20 C-4.49341969 17.01316063 -3.40648676 15.04839022 -2.5625 11.875 C-2.27503906 10.77929688 -1.98757813 9.68359375 -1.69140625 8.5546875 C-1.46324219 7.71164063 -1.23507812 6.86859375 -1 6 C-1.99 6.33 -2.98 6.66 -4 7 C-3.67 5.35 -3.34 3.7 -3 2 C-5.02790984 3.29048808 -7.02369593 4.63178949 -9 6 C-10.2065625 6.804375 -10.2065625 6.804375 -11.4375 7.625 C-14.00017335 11.52026349 -12.77729023 15.57282524 -12 20 C-11.01 18.35 -10.02 16.7 -9 15 C-8.505 15.99 -8.505 15.99 -8 17 C-8.77734375 18.9453125 -8.77734375 18.9453125 -9.9375 21.125 C-10.50791016 22.21167969 -10.50791016 22.21167969 -11.08984375 23.3203125 C-11.39019531 23.87460938 -11.69054687 24.42890625 -12 25 C-12.495 24.01 -12.495 24.01 -13 23 C-18.65863105 22.70731219 -22.02222358 22.96477048 -27 26 C-28.28322547 27.0595877 -28.28322547 27.0595877 -28.125 29.5 C-28.28322547 31.9404123 -28.28322547 31.9404123 -27 33 C-25.15400312 33.39454223 -23.29774178 33.74176866 -21.4375 34.0625 C-20.42558594 34.23910156 -19.41367187 34.41570312 -18.37109375 34.59765625 C-17.19740234 34.79681641 -17.19740234 34.79681641 -16 35 C-16 35.33 -16 35.66 -16 36 C-25.31896694 36.16285573 -25.31896694 36.16285573 -28.875 35.3125 C-31.11680824 34.74415357 -31.11680824 34.74415357 -33.125 36.375 C-33.74375 36.91125 -34.3625 37.4475 -35 38 C-39.53325038 39.51108346 -43.69120305 39.98463399 -48.125 38.09375 C-52.7072378 35.38606403 -55.83569073 32.25204058 -59 28 C-58.67 27.34 -58.34 26.68 -58 26 C-57.54109375 26.55429688 -57.0821875 27.10859375 -56.609375 27.6796875 C-55.99578125 28.40414062 -55.3821875 29.12859375 -54.75 29.875 C-54.14671875 30.59429687 -53.5434375 31.31359375 -52.921875 32.0546875 C-50.11122252 34.89961623 -48.21201285 35.91536223 -44.203125 36.1953125 C-43.22859375 36.17210937 -42.2540625 36.14890625 -41.25 36.125 C-40.26515625 36.10695312 -39.2803125 36.08890625 -38.265625 36.0703125 C-37.51796875 36.04710937 -36.7703125 36.02390625 -36 36 C-37.7015625 35.319375 -37.7015625 35.319375 -39.4375 34.625 C-43 33 -43 33 -44 31 C-42.125 30.375 -42.125 30.375 -40 30 C-39.34 30.66 -38.68 31.32 -38 32 C-35.34462628 32.56520003 -32.70855287 32.73788198 -30 33 C-32.00319481 25.99529442 -32.00319481 25.99529442 -36 20 C-31.77050005 17.58314288 -28.87664009 16.65166856 -24 17 C-24 17.66 -24 18.32 -24 19 C-26.97 19.33 -29.94 19.66 -33 20 C-33 20.66 -33 21.32 -33 22 C-29.7 21.67 -26.4 21.34 -23 21 C-23 20.34 -23 19.68 -23 19 C-22.67794257 16.66508361 -22.34541851 14.33157492 -22 12 C-22.66 13.32 -23.32 14.64 -24 16 C-24.33 16 -24.66 16 -25 16 C-25.66619172 12.97245545 -26.11964143 10.10547548 -26 7 C-23.64122063 3.66995853 -22.10551357 2.31937059 -18.1875 1.1875 C-17.465625 1.125625 -16.74375 1.06375 -16 1 C-14.68 2.65 -13.36 4.3 -12 6 C-11.05125 5.195625 -10.1025 4.39125 -9.125 3.5625 C-5.81728294 0.75813119 -4.57427478 0 0 0 Z " fill="#FBCF8C" transform="translate(372,136)"/>
<path d="M0 0 C0 0.66 0 1.32 0 2 C-4.455 2.495 -4.455 2.495 -9 3 C-9 3.66 -9 4.32 -9 5 C-8.38253906 4.9278125 -7.76507813 4.855625 -7.12890625 4.78125 C8.20224719 3.1011236 8.20224719 3.1011236 12 5 C11.67 5.99 11.34 6.98 11 8 C11 7.34 11 6.68 11 6 C5.34136895 5.70731219 1.97777642 5.96477048 -3 9 C-4.28322547 10.0595877 -4.28322547 10.0595877 -4.125 12.5 C-4.28322547 14.9404123 -4.28322547 14.9404123 -3 16 C-1.15400312 16.39454223 0.70225822 16.74176866 2.5625 17.0625 C4.08037109 17.32740234 4.08037109 17.32740234 5.62890625 17.59765625 C6.80259766 17.79681641 6.80259766 17.79681641 8 18 C8 18.33 8 18.66 8 19 C-1.31896694 19.16285573 -1.31896694 19.16285573 -4.875 18.3125 C-7.11680824 17.74415357 -7.11680824 17.74415357 -9.125 19.375 C-10.053125 20.179375 -10.053125 20.179375 -11 21 C-15.53325038 22.51108346 -19.69120305 22.98463399 -24.125 21.09375 C-28.7072378 18.38606403 -31.83569073 15.25204058 -35 11 C-34.67 10.34 -34.34 9.68 -34 9 C-33.31164062 9.83144531 -33.31164062 9.83144531 -32.609375 10.6796875 C-31.99578125 11.40414062 -31.3821875 12.12859375 -30.75 12.875 C-30.14671875 13.59429687 -29.5434375 14.31359375 -28.921875 15.0546875 C-26.11122252 17.89961623 -24.21201285 18.91536223 -20.203125 19.1953125 C-19.22859375 19.17210937 -18.2540625 19.14890625 -17.25 19.125 C-16.26515625 19.10695312 -15.2803125 19.08890625 -14.265625 19.0703125 C-13.51796875 19.04710937 -12.7703125 19.02390625 -12 19 C-13.7015625 18.319375 -13.7015625 18.319375 -15.4375 17.625 C-19 16 -19 16 -20 14 C-18.125 13.375 -18.125 13.375 -16 13 C-15.34 13.66 -14.68 14.32 -14 15 C-11.34462628 15.56520003 -8.70855287 15.73788198 -6 16 C-8.00319481 8.99529442 -8.00319481 8.99529442 -12 3 C-7.89542386 0.01485372 -5.02254631 -0.2954439 0 0 Z " fill="#FBD9A4" transform="translate(348,153)"/>
<path d="M0 0 C0 1.32 0 2.64 0 4 C0.66 4 1.32 4 2 4 C1.31936836 11.14663222 0.5232359 16.53258548 -4.46484375 21.890625 C-6 23 -6 23 -9 23 C-8.42415568 20.61435923 -7.77772405 18.33317216 -7 16 C-7.99 16.99 -8.98 17.98 -10 19 C-12.01936989 9.61586931 -12.01936989 9.61586931 -9.578125 5.74609375 C-3.77205115 0 -3.77205115 0 0 0 Z " fill="#F6990B" transform="translate(369,138)"/>
<path d="M0 0 C5.39733122 0.22029923 8.55309745 1.42297075 12.5546875 5.1015625 C15.04286138 8.36981252 15.56326818 11.98919759 16 16 C12.92428446 16.42423663 10.96581621 16.68277783 8 16 C2.94215826 11.77780167 1.12289204 6.28819542 0 0 Z " fill="#F69807" transform="translate(326,153)"/>
<path d="M0 0 C1.32 0 2.64 0 4 0 C4.66 2.31 5.32 4.62 6 7 C6.66 7 7.32 7 8 7 C8 4.69 8 2.38 8 0 C9.875 0.1875 9.875 0.1875 12 1 C13.25 3.5625 13.25 3.5625 14 6 C14.99 4.02 15.98 2.04 17 0 C17.99 0 18.98 0 20 0 C19.34309381 3.78239671 18.279869 7.21841526 16.9375 10.8125 C16.57527344 11.78832031 16.21304687 12.76414063 15.83984375 13.76953125 C15.56269531 14.50558594 15.28554688 15.24164063 15 16 C12.77810176 13.77810176 12.07401108 11.91517292 11 9 C9.02 11.97 9.02 11.97 7 15 C3.69383716 11.19791273 0 5.16418515 0 0 Z " fill="#FEF3E2" transform="translate(387,157)"/>
<path d="M0 0 C-0.85714286 8.57142857 -0.85714286 8.57142857 -3 12 C-9.0546875 12.1953125 -9.0546875 12.1953125 -11 12 C-13 10 -13 10 -13.4375 7.625 C-13 5 -13 5 -10.6875 2.75 C-6.96616951 0.32680805 -4.35314764 -0.11765264 0 0 Z " fill="#F69809" transform="translate(356,158)"/>
<path d="M0 0 C3.63 0 7.26 0 11 0 C11 0.99 11 1.98 11 3 C8.36 3 5.72 3 3 3 C3 3.99 3 4.98 3 6 C5.31 6 7.62 6 10 6 C10 6.99 10 7.98 10 9 C7.69 9 5.38 9 3 9 C3 10.32 3 11.64 3 13 C5.64 13 8.28 13 11 13 C11 13.99 11 14.98 11 16 C7.37 16 3.74 16 0 16 C0 10.72 0 5.44 0 0 Z " fill="#FEF5E7" transform="translate(450,157)"/>
<path d="M0 0 C2.23310552 1.07575855 4.46124501 2.16022483 6.6875 3.25 C7.31333984 3.55035156 7.93917969 3.85070312 8.58398438 4.16015625 C12.47009097 6.07269039 15.62996409 8.24701292 19 11 C21.68507329 11.78946609 21.68507329 11.78946609 24 12 C23.67 12.66 23.34 13.32 23 14 C13.31520241 14.62037849 13.31520241 14.62037849 8.6875 12.4375 C5.50517144 9.551202 2.36344508 6.61221571 0 3 C0 2.01 0 1.02 0 0 Z " fill="#F69A0D" transform="translate(313,159)"/>
<path d="M0 0 C0.33 0 0.66 0 1 0 C1.42653727 4.35068018 1.57772872 6.29388712 -1.25 9.75 C-2.1575 10.4925 -3.065 11.235 -4 12 C-4.5775 12.598125 -5.155 13.19625 -5.75 13.8125 C-9.33598327 15.70510228 -13.02658614 15.22923542 -17 15 C-15.24462174 11.12551645 -13.72402217 10.10488209 -10 8 C-6.50304193 5.50984368 -3.03896389 3.03896389 0 0 Z " fill="#F69F19" transform="translate(375,157)"/>
<path d="M0 0 C6.25882353 -0.36108597 6.25882353 -0.36108597 9.4375 1.1875 C11 3 11 3 11.4375 5.5 C11 8 11 8 10 9.8125 C6.76011038 11.73618446 3.7174181 11.18282384 0 11 C0 7.37 0 3.74 0 0 Z " fill="#FDEDD4" transform="translate(490,138)"/>
<path d="M0 0 C3.73829578 4.29904015 7 10.24928075 7 16 C6.01 16 5.02 16 4 16 C3.67 15.34 3.34 14.68 3 14 C-0.02934491 13.34227572 -0.02934491 13.34227572 -3 13 C-3 13.66 -3 14.32 -3 15 C-3.99 15 -4.98 15 -6 15 C-4.36041242 9.76727367 -2.61047965 4.84803364 0 0 Z " fill="#FEF5E7" transform="translate(413,157)"/>
<path d="M0 0 C1.32 0 2.64 0 4 0 C4 3.96 4 7.92 4 12 C6.31 12 8.62 12 11 12 C11 13.32 11 14.64 11 16 C7.37 16 3.74 16 0 16 C0 10.72 0 5.44 0 0 Z " fill="#FCE5C2" transform="translate(436,157)"/>
<path d="M0 0 C1.65 0 3.3 0 5 0 C5.66 1.98 6.32 3.96 7 6 C7.66 6 8.32 6 9 6 C9.66 4.02 10.32 2.04 11 0 C12.32 0.33 13.64 0.66 15 1 C15 4.3 15 7.6 15 11 C13.35 11 11.7 11 10 11 C10 9.68 10 8.36 10 7 C9.34 8.32 8.68 9.64 8 11 C7.34 11 6.68 11 6 11 C5.34 9.35 4.68 7.7 4 6 C4 7.65 4 9.3 4 11 C2.68 10.67 1.36 10.34 0 10 C0.66 10 1.32 10 2 10 C1.7834375 8.081875 1.7834375 8.081875 1.5625 6.125 C1.48128906 5.40570313 1.40007812 4.68640625 1.31640625 3.9453125 C1.08707039 1.92595684 1.08707039 1.92595684 0 0 Z " fill="#FDEBD0" transform="translate(441,138)"/>
<path d="M0 0 C-0.68063164 7.14663222 -1.4767641 12.53258548 -6.46484375 17.890625 C-8 19 -8 19 -11 19 C-10.19922171 15.07519776 -8.62769139 11.47962708 -7.0625 7.8125 C-6.66514648 6.85053711 -6.66514648 6.85053711 -6.25976562 5.86914062 C-3.76212711 0 -3.76212711 0 0 0 Z " fill="#F7A322" transform="translate(371,142)"/>
<path d="M0 0 C0.33452052 7.43378943 0.13902852 13.19877155 -3 20 C-4.49341969 17.01316063 -3.40648676 15.04839022 -2.5625 11.875 C-2.27503906 10.77929688 -1.98757813 9.68359375 -1.69140625 8.5546875 C-1.46324219 7.71164063 -1.23507812 6.86859375 -1 6 C-1.99 6.33 -2.98 6.66 -4 7 C-3.67 5.35 -3.34 3.7 -3 2 C-8.5032866 5.42897228 -8.5032866 5.42897228 -13 10 C-13.80765878 13.64721696 -13.80765878 13.64721696 -14 17 C-14.474375 16.34 -14.94875 15.68 -15.4375 15 C-15.953125 14.34 -16.46875 13.68 -17 13 C-17.33 13 -17.66 13 -18 13 C-18.33 10.69 -18.66 8.38 -19 6 C-18.01 6.33 -17.02 6.66 -16 7 C-16 7.66 -16 8.32 -16 9 C-15.34 9 -14.68 9 -14 9 C-13.67 8.01 -13.34 7.02 -13 6 C-11.07421875 4.39453125 -11.07421875 4.39453125 -8.6875 2.8125 C-7.90761719 2.28269531 -7.12773437 1.75289062 -6.32421875 1.20703125 C-4 0 -4 0 0 0 Z " fill="#FCDCAC" transform="translate(372,136)"/>
<path d="M0 0 C2.29982088 2.19653551 4.22764592 4.5120366 6.125 7.0625 C6.64320313 7.75472656 7.16140625 8.44695312 7.6953125 9.16015625 C10.07959596 12.52242424 10.07959596 12.52242424 9.5625 15.625 C9.376875 16.40875 9.19125 17.1925 9 18 C5.26401391 17.06600348 4.04640522 16.06145556 1.6875 12.9375 C-0.53350305 8.70956649 -0.38087163 4.66567742 0 0 Z " fill="#F69B10" transform="translate(315,139)"/>
<path d="M0 0 C0.99 0 1.98 0 3 0 C3 0.66 3 1.32 3 2 C2.34 2 1.68 2 1 2 C0.90961901 7.15171623 1.15318867 11.91913204 2 17 C0.35 17.66 -1.3 18.32 -3 19 C-3 16.36 -3 13.72 -3 11 C-3.66 11 -4.32 11 -5 11 C-5.33 8.69 -5.66 6.38 -6 4 C-4.35 3.67 -2.7 3.34 -1 3 C-0.67 2.01 -0.34 1.02 0 0 Z " fill="#FBDAA8" transform="translate(339,137)"/>
<path d="M0 0 C1.65 0 3.3 0 5 0 C4.67 1.32 4.34 2.64 4 4 C4.66 4 5.32 4 6 4 C6 2.68 6 1.36 6 0 C7.65 0 9.3 0 11 0 C10.67 0.5775 10.34 1.155 10 1.75 C8.72924102 4.19883862 8.72924102 4.19883862 9 8 C10.4166747 9.7511573 10.4166747 9.7511573 12 11 C10.00045254 11.04254356 7.99958364 11.04080783 6 11 C5.67 10.67 5.34 10.34 5 10 C5 10.33 5 10.66 5 11 C3.35 11 1.7 11 0 11 C0 7.37 0 3.74 0 0 Z " fill="#FCE7C5" transform="translate(384,138)"/>
<path d="M0 0 C2.5 0.3125 2.5 0.3125 5 1 C5.33 1.66 5.66 2.32 6 3 C4.02 3 2.04 3 0 3 C0.52313163 11.30235597 0.52313163 11.30235597 4.625 18.125 C5.40875 18.74375 6.1925 19.3625 7 20 C7 20.66 7 21.32 7 22 C7.66 22 8.32 22 9 22 C8.67 22.99 8.34 23.98 8 25 C5.69 24.34 3.38 23.68 1 23 C1.99 23.99 2.98 24.98 4 26 C1.525 25.01 1.525 25.01 -1 24 C-1.66 24.66 -2.32 25.32 -3 26 C-3.33 24.02 -3.66 22.04 -4 20 C-1.03 20.33 1.94 20.66 5 21 C4.195625 20.21625 3.39125 19.4325 2.5625 18.625 C-1.24061757 14.72912347 -1.13676042 12.79437172 -1.125 7.4375 C-1.12757813 6.26058594 -1.13015625 5.08367187 -1.1328125 3.87109375 C-1 1 -1 1 0 0 Z " fill="#FBD294" transform="translate(315,136)"/>
<path d="M0 0 C1.67542976 0.28604898 3.34385343 0.61781233 5 1 C5.33 3.31 5.66 5.62 6 8 C5.34 8 4.68 8 4 8 C3.67 7.34 3.34 6.68 3 6 C2.01 6 1.02 6 0 6 C-1.98 10.455 -1.98 10.455 -4 15 C-4.33 15 -4.66 15 -5 15 C-5.66627145 11.97209311 -6.14045976 9.10572128 -6 6 C-3.625 3 -3.625 3 -1 1 C-0.67 0.67 -0.34 0.34 0 0 Z " fill="#F69E17" transform="translate(352,137)"/>
<path d="M0 0 C3.63 0 7.26 0 11 0 C11 0.99 11 1.98 11 3 C9.68 3 8.36 3 7 3 C7 7.29 7 11.58 7 16 C6.01 16 5.02 16 4 16 C4 11.71 4 7.42 4 3 C2.68 3 1.36 3 0 3 C0 2.01 0 1.02 0 0 Z " fill="#FEF5E8" transform="translate(463,157)"/>
<path d="M0 0 C0.99 0 1.98 0 3 0 C3 4.29 3 8.58 3 13 C5.31 13 7.62 13 10 13 C10 13.99 10 14.98 10 16 C6.7 16 3.4 16 0 16 C0 10.72 0 5.44 0 0 Z " fill="#FDE9CC" transform="translate(423,157)"/>
<path d="M0 0 C1.98 0 3.96 0 6 0 C5.67 1.65 5.34 3.3 5 5 C6.32 5 7.64 5 9 5 C8.67 3.35 8.34 1.7 8 0 C9.65 0 11.3 0 13 0 C12.01 0.495 12.01 0.495 11 1 C11 3.97 11 6.94 11 10 C11.66 10.33 12.32 10.66 13 11 C11.35 11 9.7 11 8 11 C8.33 9.35 8.66 7.7 9 6 C7.35 6 5.7 6 4 6 C4 7.32 4 8.64 4 10 C4.66 10.33 5.32 10.66 6 11 C4.02 11 2.04 11 0 11 C0.66 10.67 1.32 10.34 2 10 C2 7.03 2 4.06 2 1 C1.34 0.67 0.68 0.34 0 0 Z " fill="#FDEDD6" transform="translate(425,138)"/>
<path d="M0 0 C2 3 2 3 2 5 C2.66 5 3.32 5 4 5 C6 8 6 8 5.625 10.1875 C5.41875 10.785625 5.2125 11.38375 5 12 C-6.89066059 7.18223235 -6.89066059 7.18223235 -10 2 C-6.26512223 2.4979837 -4.18762365 2.87491756 -1 5 C-0.67 3.35 -0.34 1.7 0 0 Z " fill="#F9C16A" transform="translate(325,156)"/>
<path d="M0 0 C3.24208567 0.35049575 4.61527704 0.56221181 6.8125 3.0625 C7.204375 3.701875 7.59625 4.34125 8 5 C8 3.35 8 1.7 8 0 C9.32 0.33 10.64 0.66 12 1 C11.67 4.3 11.34 7.6 11 11 C7.23312136 9.11656068 6.20578354 8.30867531 4 5 C4 6.98 4 8.96 4 11 C2.68 10.67 1.36 10.34 0 10 C0.66 10 1.32 10 2 10 C1.7834375 8.081875 1.7834375 8.081875 1.5625 6.125 C1.48128906 5.40570313 1.40007812 4.68640625 1.31640625 3.9453125 C1.08707039 1.92595684 1.08707039 1.92595684 0 0 Z " fill="#FDF0DA" transform="translate(474,138)"/>
<path d="M0 0 C3 1 3 1 4.16796875 3.28515625 C4.50441406 4.20167969 4.84085937 5.11820313 5.1875 6.0625 C5.53167969 6.98160156 5.87585938 7.90070313 6.23046875 8.84765625 C6.48441406 9.55792969 6.73835938 10.26820313 7 11 C5.35 11 3.7 11 2 11 C2.33 10.01 2.66 9.02 3 8 C1.35 8 -0.3 8 -2 8 C-1.67 8.99 -1.34 9.98 -1 11 C-2.32 10.67 -3.64 10.34 -5 10 C-3.35 6.7 -1.7 3.4 0 0 Z " fill="#FDEFD9" transform="translate(464,138)"/>
<path d="M0 0 C3 1 3 1 4.16796875 3.28515625 C4.50441406 4.20167969 4.84085937 5.11820313 5.1875 6.0625 C5.53167969 6.98160156 5.87585938 7.90070313 6.23046875 8.84765625 C6.48441406 9.55792969 6.73835938 10.26820313 7 11 C5.35 11 3.7 11 2 11 C2.33 10.01 2.66 9.02 3 8 C1.35 8 -0.3 8 -2 8 C-1.67 8.99 -1.34 9.98 -1 11 C-2.32 10.67 -3.64 10.34 -5 10 C-4.34 10 -3.68 10 -3 10 C-2.87625 9.278125 -2.7525 8.55625 -2.625 7.8125 C-2.0095069 5.04278106 -1.11555626 2.6029646 0 0 Z " fill="#FDF0DD" transform="translate(403,138)"/>
<path d="M0 0 C1.98 0 3.96 0 6 0 C5.01 0.495 5.01 0.495 4 1 C4.33 3.31 4.66 5.62 5 8 C6.32 8 7.64 8 9 8 C9.20970559 3.85906302 9.20970559 3.85906302 8 0 C9.32 0.33 10.64 0.66 12 1 C11.25 8.75 11.25 8.75 9 11 C5.375 10.625 5.375 10.625 2 10 C2 7.03 2 4.06 2 1 C1.34 0.67 0.68 0.34 0 0 Z " fill="#FDEACE" transform="translate(504,138)"/>
<path d="M0 0 C3.61271177 3.43455064 4.93422129 6.2568643 5.125 11.3125 C5.08375 12.199375 5.0425 13.08625 5 14 C3.68 14 2.36 14 1 14 C-0.04976964 10.85069107 -0.10131595 8.61185544 -0.0625 5.3125 C-0.05347656 4.31863281 -0.04445313 3.32476562 -0.03515625 2.30078125 C-0.02355469 1.54152344 -0.01195312 0.78226563 0 0 Z " fill="#F69808" transform="translate(341,140)"/>
<path d="M0 0 C3.90853901 1.30284634 6.46045282 2.7079944 9 6 C9.25 8.75 9.25 8.75 9 11 C5.55984676 9.59600584 4.12265041 8.12216166 2.25 4.9375 C1.82203125 4.22464844 1.3940625 3.51179687 0.953125 2.77734375 C0 1 0 1 0 0 Z " fill="#F69A0E" transform="translate(317,138)"/>
<path d="M0 0 C0.66 0 1.32 0 2 0 C3.4375 1.93359375 3.4375 1.93359375 5 4.4375 C6.9529916 7.81006651 6.9529916 7.81006651 10 10 C10 8.35 10 6.7 10 5 C10.99 5 11.98 5 13 5 C13 7.31 13 9.62 13 12 C10.875 12.4375 10.875 12.4375 8 12 C4.19726207 8.7086327 1.4645623 4.8330556 0 0 Z " fill="#FAC97E" transform="translate(316,139)"/>
<path d="M0 0 C0.33 0 0.66 0 1 0 C1.66 4.29 2.32 8.58 3 13 C1.35 13.66 -0.3 14.32 -2 15 C-2.22577402 9.5814234 -1.46670113 5.22512279 0 0 Z " fill="#F69E16" transform="translate(338,141)"/>
<path d="M0 0 C4 1 4 1 5 2 C5.1875 4.4375 5.1875 4.4375 5 7 C4.34 7.66 3.68 8.32 3 9 C2.01 9 1.02 9 0 9 C0 6.03 0 3.06 0 0 Z " fill="#F7A323" transform="translate(493,139)"/>
<path d="M0 0 C0.66 1.98 1.32 3.96 2 6 C0.02 6 -1.96 6 -4 6 C-4 6.66 -4 7.32 -4 8 C-4.99 8 -5.98 8 -7 8 C-6.40138258 5.64828869 -5.73075648 3.3140622 -5 1 C-3 0 -3 0 0 0 Z " fill="#FCE3BD" transform="translate(414,164)"/>
<path d="M0 0 C0.33 0 0.66 0 1 0 C1.05422947 1.4370809 1.09289723 2.87475462 1.125 4.3125 C1.14820313 5.11300781 1.17140625 5.91351563 1.1953125 6.73828125 C1 9 1 9 -1 12 C-1.66 11.34 -2.32 10.68 -3 10 C-2.69903201 5.86169011 -2.32101984 3.48152976 0 0 Z " fill="#F69B0F" transform="translate(352,145)"/>
<path d="M0 0 C0.33 0 0.66 0 1 0 C1.33 3.63 1.66 7.26 2 11 C4.31 11.33 6.62 11.66 9 12 C9 12.66 9 13.32 9 14 C6.03 14 3.06 14 0 14 C0 9.38 0 4.76 0 0 Z " fill="#FEFEFD" transform="translate(424,158)"/>
<path d="M0 0 C0.66 0.33 1.32 0.66 2 1 C2.25 3.8125 2.25 3.8125 2 7 C0 8.875 0 8.875 -2 10 C-2.66 9.67 -3.32 9.34 -4 9 C-2.68 6.03 -1.36 3.06 0 0 Z " fill="#F69E17" transform="translate(358,160)"/>
<path d="M0 0 C4.95 0.99 4.95 0.99 10 2 C7 3 7 3 5 3 C5.99 3.99 6.98 4.98 8 6 C5.525 5.01 5.525 5.01 3 4 C2.34 4.66 1.68 5.32 1 6 C0.67 4.02 0.34 2.04 0 0 Z " fill="#FCE2B9" transform="translate(311,156)"/>
<path d="M0 0 C3.51716303 3.51716303 3.54676163 5.19567333 4 10 C2.68 9.67 1.36 9.34 0 9 C0 6.03 0 3.06 0 0 Z " fill="#F69C10" transform="translate(330,143)"/>
<path d="M0 0 C1.98 0.495 1.98 0.495 4 1 C4 4.3 4 7.6 4 11 C2.35 11 0.7 11 -1 11 C-0.34 10.67 0.32 10.34 1 10 C0.67 6.7 0.34 3.4 0 0 Z " fill="#FDF2DF" transform="translate(452,138)"/>
<path d="M0 0 C0.99 0.66 1.98 1.32 3 2 C3 3.32 3 4.64 3 6 C1.68 6 0.36 6 -1 6 C-0.67 6.99 -0.34 7.98 0 9 C-1.32 8.67 -2.64 8.34 -4 8 C-2.68 5.36 -1.36 2.72 0 0 Z " fill="#FACD88" transform="translate(463,140)"/>
<path d="M0 0 C0.66 0.33 1.32 0.66 2 1 C2 1.66 2 2.32 2 3 C-1.3 3 -4.6 3 -8 3 C-8 2.34 -8 1.68 -8 1 C-5.26094655 -0.36952673 -3.02912668 -0.12621361 0 0 Z " fill="#F7A424" transform="translate(347,155)"/>
<path d="M0 0 C0.66 0.33 1.32 0.66 2 1 C0.73608512 2.00873016 -0.53640883 3.00671822 -1.8125 4 C-2.87404297 4.8353125 -2.87404297 4.8353125 -3.95703125 5.6875 C-6 7 -6 7 -9 7 C-8 4 -8 4 -6.22265625 2.796875 C-5.50980469 2.45140625 -4.79695313 2.1059375 -4.0625 1.75 C-3.35222656 1.39421875 -2.64195312 1.0384375 -1.91015625 0.671875 C-1.27980469 0.45015625 -0.64945312 0.2284375 0 0 Z " fill="#F7A21F" transform="translate(370,158)"/>
<path d="M0 0 C-0.33 2.64 -0.66 5.28 -1 8 C-1.61875 7.360625 -2.2375 6.72125 -2.875 6.0625 C-4.82597612 3.96116416 -4.82597612 3.96116416 -7 3 C-2.25 0 -2.25 0 0 0 Z " fill="#FCE1B9" transform="translate(378,153)"/>
<path d="M0 0 C0.185625 0.9590625 0.185625 0.9590625 0.375 1.9375 C0.684375 2.9584375 0.684375 2.9584375 1 4 C1.66 4.33 2.32 4.66 3 5 C2.34 5 1.68 5 1 5 C1 6.32 1 7.64 1 9 C1.66 9.33 2.32 9.66 3 10 C1.35 10 -0.3 10 -2 10 C-1.85950482 8.52031676 -1.71245174 7.04125484 -1.5625 5.5625 C-1.48128906 4.73878906 -1.40007812 3.91507813 -1.31640625 3.06640625 C-1 1 -1 1 0 0 Z " fill="#FDF1DF" transform="translate(386,139)"/>
<path d="M0 0 C2.5 0.3125 2.5 0.3125 5 1 C5.33 1.66 5.66 2.32 6 3 C4.02 3 2.04 3 0 3 C0 5.97 0 8.94 0 12 C-0.33 12 -0.66 12 -1 12 C-1.02687279 10.18757948 -1.04633715 8.37504767 -1.0625 6.5625 C-1.07410156 5.55316406 -1.08570313 4.54382813 -1.09765625 3.50390625 C-1 1 -1 1 0 0 Z " fill="#FCDEB0" transform="translate(315,136)"/>
<path d="M0 0 C2.4294516 3.6441774 2.16179575 5.71241272 2 10 C1.01 10 0.02 10 -1 10 C-0.67 6.7 -0.34 3.4 0 0 Z " fill="#F6A01B" transform="translate(355,146)"/>
<path d="M0 0 C1.65 0 3.3 0 5 0 C4.67 1.65 4.34 3.3 4 5 C2.68 4.67 1.36 4.34 0 4 C0 2.68 0 1.36 0 0 Z " fill="#F7A11E" transform="translate(429,144)"/>
<path d="M0 0 C1.32 0.33 2.64 0.66 4 1 C3.67 4.3 3.34 7.6 3 11 C-0.317124 6.577168 -0.30466674 5.28089024 0 0 Z " fill="#FBD79F" transform="translate(482,138)"/>
<path d="M0 0 C2 2 2 2 2 5 C0.68 5 -0.64 5 -2 5 C-1.67 5.99 -1.34 6.98 -1 8 C-2.32 7.67 -3.64 7.34 -5 7 C-4.34 7 -3.68 7 -3 7 C-2.67 5.35 -2.34 3.7 -2 2 C-1.34 2 -0.68 2 0 2 C0 1.34 0 0.68 0 0 Z " fill="#FACC85" transform="translate(403,141)"/>
<path d="M0 0 C3.73487777 0.4979837 5.81237635 0.87491756 9 3 C9 3.66 9 4.32 9 5 C5.22454612 3.90931332 2.52956528 3.0916909 0 0 Z " fill="#F6A11D" transform="translate(315,158)"/>
<path d="M0 0 C1.65 0 3.3 0 5 0 C4.1875 1.9375 4.1875 1.9375 3 4 C2.01 4.33 1.02 4.66 0 5 C0 3.35 0 1.7 0 0 Z " fill="#F9BF67" transform="translate(390,138)"/>
<path d="M0 0 C6.625 -0.25 6.625 -0.25 10 2 C9.67 3.65 9.34 5.3 9 7 C8.814375 6.38125 8.62875 5.7625 8.4375 5.125 C6.28562767 1.94397134 3.62466237 1.80548053 0 1 C0 0.67 0 0.34 0 0 Z " fill="#FDEACD" transform="translate(490,138)"/>
<path d="M0 0 C0.99 0 1.98 0 3 0 C3 2.31 3 4.62 3 7 C2.34 7 1.68 7 1 7 C0.67 4.69 0.34 2.38 0 0 Z " fill="#F69E16" transform="translate(333,141)"/>
<path d="M0 0 C2.6875 0.3125 2.6875 0.3125 5 1 C5.33 2.32 5.66 3.64 6 5 C5.34 4.67 4.68 4.34 4 4 C4 3.34 4 2.68 4 2 C1.69 2.33 -0.62 2.66 -3 3 C-1.8125 1.4375 -1.8125 1.4375 0 0 Z " fill="#FBD192" transform="translate(352,137)"/>
</svg>
